<mxfile host="app.diagrams.net" modified="2021-01-19T11:41:59.666Z" agent="5.0 (Macintosh; Intel Mac OS X 10_15_4) AppleWebKit/537.36 (KHTML, like Gecko) Chrome/87.0.4280.141 Safari/537.36" etag="fNH2HRiVR2K77kMqab9Y" version="14.2.3" type="github">
  <diagram id="6a731a19-8d31-9384-78a2-239565b7b9f0" name="Page-1">
    <mxGraphModel dx="1426" dy="769" grid="1" gridSize="10" guides="1" tooltips="1" connect="1" arrows="1" fold="1" page="1" pageScale="1" pageWidth="1169" pageHeight="827" background="#F1FAEE" math="0" shadow="0">
      <root>
        <mxCell id="0" />
        <mxCell id="1" parent="0" />
        <mxCell id="Rc0qGepZVWq9vl_8Q3Fg-58" style="edgeStyle=orthogonalEdgeStyle;curved=0;rounded=1;sketch=0;orthogonalLoop=1;jettySize=auto;html=1;exitX=1;exitY=0.5;exitDx=0;exitDy=0;strokeColor=#457B9D;fillColor=#A8DADC;fontColor=#1D3557;" edge="1" parent="1" source="Rc0qGepZVWq9vl_8Q3Fg-55" target="Rc0qGepZVWq9vl_8Q3Fg-57">
          <mxGeometry relative="1" as="geometry" />
        </mxCell>
        <mxCell id="Rc0qGepZVWq9vl_8Q3Fg-55" value="增量数据（binlog）" style="rounded=1;whiteSpace=wrap;html=1;sketch=0;strokeColor=#457B9D;fillColor=#A8DADC;fontColor=#1D3557;" vertex="1" parent="1">
          <mxGeometry x="170" y="260" width="90" height="40" as="geometry" />
        </mxCell>
        <mxCell id="Rc0qGepZVWq9vl_8Q3Fg-64" style="edgeStyle=orthogonalEdgeStyle;curved=0;rounded=1;sketch=0;orthogonalLoop=1;jettySize=auto;html=1;exitX=0.5;exitY=0;exitDx=0;exitDy=0;exitPerimeter=0;strokeColor=#457B9D;fillColor=#A8DADC;fontColor=#1D3557;" edge="1" parent="1" source="Rc0qGepZVWq9vl_8Q3Fg-57" target="Rc0qGepZVWq9vl_8Q3Fg-63">
          <mxGeometry relative="1" as="geometry" />
        </mxCell>
        <mxCell id="Rc0qGepZVWq9vl_8Q3Fg-57" value="dbus" style="shape=cylinder3;whiteSpace=wrap;html=1;boundedLbl=1;backgroundOutline=1;size=15;rounded=0;sketch=0;strokeColor=#82b366;direction=south;fillColor=#97D077;" vertex="1" parent="1">
          <mxGeometry x="330" y="300" width="80" height="40" as="geometry" />
        </mxCell>
        <mxCell id="Rc0qGepZVWq9vl_8Q3Fg-60" style="edgeStyle=orthogonalEdgeStyle;curved=0;rounded=1;sketch=0;orthogonalLoop=1;jettySize=auto;html=1;exitX=1;exitY=0.5;exitDx=0;exitDy=0;entryX=0.5;entryY=1;entryDx=0;entryDy=0;entryPerimeter=0;strokeColor=#457B9D;fillColor=#A8DADC;fontColor=#1D3557;" edge="1" parent="1" source="Rc0qGepZVWq9vl_8Q3Fg-59" target="Rc0qGepZVWq9vl_8Q3Fg-57">
          <mxGeometry relative="1" as="geometry" />
        </mxCell>
        <mxCell id="Rc0qGepZVWq9vl_8Q3Fg-59" value="存量数据" style="rounded=1;whiteSpace=wrap;html=1;sketch=0;strokeColor=#457B9D;fillColor=#A8DADC;fontColor=#1D3557;" vertex="1" parent="1">
          <mxGeometry x="170" y="340" width="90" height="40" as="geometry" />
        </mxCell>
        <mxCell id="Rc0qGepZVWq9vl_8Q3Fg-71" style="edgeStyle=orthogonalEdgeStyle;curved=0;rounded=1;sketch=0;orthogonalLoop=1;jettySize=auto;html=1;exitX=1;exitY=0.5;exitDx=0;exitDy=0;strokeColor=#457B9D;fillColor=#A8DADC;fontColor=#1D3557;" edge="1" parent="1" source="Rc0qGepZVWq9vl_8Q3Fg-63" target="Rc0qGepZVWq9vl_8Q3Fg-68">
          <mxGeometry relative="1" as="geometry" />
        </mxCell>
        <mxCell id="Rc0qGepZVWq9vl_8Q3Fg-63" value="binlog dispatcher" style="rounded=1;whiteSpace=wrap;html=1;sketch=0;strokeColor=#9673a6;fillColor=#e1d5e7;" vertex="1" parent="1">
          <mxGeometry x="426.5" y="300" width="90" height="40" as="geometry" />
        </mxCell>
        <mxCell id="Rc0qGepZVWq9vl_8Q3Fg-65" value="flink 作业" style="text;html=1;strokeColor=none;fillColor=none;align=center;verticalAlign=middle;whiteSpace=wrap;rounded=0;sketch=0;fontColor=#1D3557;" vertex="1" parent="1">
          <mxGeometry x="426.5" y="270" width="90" height="20" as="geometry" />
        </mxCell>
        <mxCell id="Rc0qGepZVWq9vl_8Q3Fg-77" style="edgeStyle=orthogonalEdgeStyle;curved=0;rounded=1;sketch=0;orthogonalLoop=1;jettySize=auto;html=1;exitX=0.5;exitY=0;exitDx=0;exitDy=0;exitPerimeter=0;entryX=0;entryY=0.5;entryDx=0;entryDy=0;strokeColor=#457B9D;fillColor=#A8DADC;fontColor=#1D3557;" edge="1" parent="1" source="Rc0qGepZVWq9vl_8Q3Fg-68" target="Rc0qGepZVWq9vl_8Q3Fg-76">
          <mxGeometry relative="1" as="geometry" />
        </mxCell>
        <mxCell id="Rc0qGepZVWq9vl_8Q3Fg-68" value="BMQ" style="shape=cylinder3;whiteSpace=wrap;html=1;boundedLbl=1;backgroundOutline=1;size=15;rounded=0;sketch=0;strokeColor=#82b366;direction=south;fillColor=#97D077;" vertex="1" parent="1">
          <mxGeometry x="576.5" y="300" width="80" height="40" as="geometry" />
        </mxCell>
        <mxCell id="Rc0qGepZVWq9vl_8Q3Fg-75" value="加密处理" style="text;html=1;strokeColor=none;fillColor=none;align=center;verticalAlign=middle;whiteSpace=wrap;rounded=0;sketch=0;fontColor=#1D3557;" vertex="1" parent="1">
          <mxGeometry x="526.5" y="300" width="50" height="20" as="geometry" />
        </mxCell>
        <mxCell id="Rc0qGepZVWq9vl_8Q3Fg-109" style="edgeStyle=orthogonalEdgeStyle;curved=0;rounded=1;sketch=0;orthogonalLoop=1;jettySize=auto;html=1;exitX=1;exitY=0.5;exitDx=0;exitDy=0;startArrow=none;startFill=0;strokeColor=#457B9D;fillColor=#A8DADC;fontColor=#1D3557;" edge="1" parent="1" source="Rc0qGepZVWq9vl_8Q3Fg-76" target="Rc0qGepZVWq9vl_8Q3Fg-108">
          <mxGeometry relative="1" as="geometry" />
        </mxCell>
        <mxCell id="Rc0qGepZVWq9vl_8Q3Fg-76" value="Flink ETL任务" style="rounded=1;whiteSpace=wrap;html=1;sketch=0;strokeColor=#9673a6;fillColor=#e1d5e7;" vertex="1" parent="1">
          <mxGeometry x="678" y="300" width="90" height="40" as="geometry" />
        </mxCell>
        <mxCell id="Rc0qGepZVWq9vl_8Q3Fg-115" style="edgeStyle=orthogonalEdgeStyle;curved=0;rounded=1;sketch=0;orthogonalLoop=1;jettySize=auto;html=1;exitX=1;exitY=0.5;exitDx=0;exitDy=0;exitPerimeter=0;startArrow=none;startFill=0;strokeColor=#457B9D;fillColor=#A8DADC;fontColor=#1D3557;" edge="1" parent="1" source="Rc0qGepZVWq9vl_8Q3Fg-81" target="Rc0qGepZVWq9vl_8Q3Fg-83">
          <mxGeometry relative="1" as="geometry" />
        </mxCell>
        <mxCell id="Rc0qGepZVWq9vl_8Q3Fg-81" value="&lt;font color=&quot;#000000&quot;&gt;Mysql&lt;/font&gt;" style="shape=cylinder3;whiteSpace=wrap;html=1;boundedLbl=1;backgroundOutline=1;size=15;rounded=0;sketch=0;strokeColor=#2D7600;fillColor=#60a917;fontColor=#ffffff;" vertex="1" parent="1">
          <mxGeometry x="690" y="470" width="65" height="60" as="geometry" />
        </mxCell>
        <mxCell id="Rc0qGepZVWq9vl_8Q3Fg-82" value="&lt;font color=&quot;#000000&quot;&gt;clickhouse&lt;/font&gt;" style="shape=cylinder3;whiteSpace=wrap;html=1;boundedLbl=1;backgroundOutline=1;size=15;rounded=0;sketch=0;strokeColor=#2D7600;fillColor=#60a917;fontColor=#ffffff;" vertex="1" parent="1">
          <mxGeometry x="890" y="470" width="65" height="60" as="geometry" />
        </mxCell>
        <mxCell id="Rc0qGepZVWq9vl_8Q3Fg-100" style="edgeStyle=orthogonalEdgeStyle;curved=0;rounded=1;sketch=0;orthogonalLoop=1;jettySize=auto;html=1;exitX=0.5;exitY=0;exitDx=0;exitDy=0;exitPerimeter=0;strokeColor=#457B9D;fillColor=#A8DADC;fontColor=#1D3557;" edge="1" parent="1" source="Rc0qGepZVWq9vl_8Q3Fg-83" target="Rc0qGepZVWq9vl_8Q3Fg-82">
          <mxGeometry relative="1" as="geometry" />
        </mxCell>
        <mxCell id="Rc0qGepZVWq9vl_8Q3Fg-83" value="BMQ" style="shape=cylinder3;whiteSpace=wrap;html=1;boundedLbl=1;backgroundOutline=1;size=15;rounded=0;sketch=0;strokeColor=#82b366;direction=south;fillColor=#97D077;" vertex="1" parent="1">
          <mxGeometry x="780" y="480" width="80" height="40" as="geometry" />
        </mxCell>
        <mxCell id="Rc0qGepZVWq9vl_8Q3Fg-87" value="" style="rounded=0;whiteSpace=wrap;html=1;sketch=0;strokeColor=#457B9D;fontColor=#1D3557;fillColor=none;dashed=1;" vertex="1" parent="1">
          <mxGeometry x="140" y="220" width="170" height="180" as="geometry" />
        </mxCell>
        <mxCell id="Rc0qGepZVWq9vl_8Q3Fg-88" value="OKR 业务数据" style="text;html=1;strokeColor=none;fillColor=none;align=center;verticalAlign=middle;whiteSpace=wrap;rounded=0;dashed=1;sketch=0;fontColor=#1D3557;" vertex="1" parent="1">
          <mxGeometry x="180" y="230" width="80" height="20" as="geometry" />
        </mxCell>
        <mxCell id="Rc0qGepZVWq9vl_8Q3Fg-111" style="edgeStyle=orthogonalEdgeStyle;curved=0;rounded=1;sketch=0;orthogonalLoop=1;jettySize=auto;html=1;exitX=0.5;exitY=0;exitDx=0;exitDy=0;exitPerimeter=0;startArrow=none;startFill=0;strokeColor=#457B9D;fillColor=#A8DADC;fontColor=#1D3557;" edge="1" parent="1" source="Rc0qGepZVWq9vl_8Q3Fg-108" target="Rc0qGepZVWq9vl_8Q3Fg-110">
          <mxGeometry relative="1" as="geometry" />
        </mxCell>
        <mxCell id="Rc0qGepZVWq9vl_8Q3Fg-108" value="BMQ" style="shape=cylinder3;whiteSpace=wrap;html=1;boundedLbl=1;backgroundOutline=1;size=15;rounded=0;sketch=0;strokeColor=#82b366;direction=south;fillColor=#97D077;" vertex="1" parent="1">
          <mxGeometry x="800" y="300" width="80" height="40" as="geometry" />
        </mxCell>
        <mxCell id="Rc0qGepZVWq9vl_8Q3Fg-110" value="Sink 任务" style="rounded=1;whiteSpace=wrap;html=1;sketch=0;strokeColor=#9673a6;fillColor=#e1d5e7;" vertex="1" parent="1">
          <mxGeometry x="910" y="300" width="90" height="40" as="geometry" />
        </mxCell>
        <mxCell id="Rc0qGepZVWq9vl_8Q3Fg-113" value="Dorado 平台" style="rounded=1;whiteSpace=wrap;html=1;dashed=1;sketch=0;strokeColor=#457B9D;fillColor=none;fontColor=#1D3557;align=left;verticalAlign=top;" vertex="1" parent="1">
          <mxGeometry x="660" y="250" width="367" height="120" as="geometry" />
        </mxCell>
        <mxCell id="Rc0qGepZVWq9vl_8Q3Fg-116" value="数据仓库" style="rounded=1;whiteSpace=wrap;html=1;dashed=1;sketch=0;strokeColor=#457B9D;fillColor=none;fontColor=#1D3557;align=left;verticalAlign=top;" vertex="1" parent="1">
          <mxGeometry x="656.5" y="450" width="367" height="120" as="geometry" />
        </mxCell>
        <mxCell id="Rc0qGepZVWq9vl_8Q3Fg-118" value="数据写入" style="text;html=1;strokeColor=none;fillColor=none;align=center;verticalAlign=middle;whiteSpace=wrap;rounded=0;dashed=1;sketch=0;fontColor=#1D3557;" vertex="1" parent="1">
          <mxGeometry x="710" y="390" width="80" height="20" as="geometry" />
        </mxCell>
        <mxCell id="Rc0qGepZVWq9vl_8Q3Fg-119" value="" style="shape=flexArrow;endArrow=classic;html=1;strokeColor=#457B9D;fillColor=#A8DADC;fontColor=#1D3557;" edge="1" parent="1">
          <mxGeometry width="50" height="50" relative="1" as="geometry">
            <mxPoint x="923" y="430" as="sourcePoint" />
            <mxPoint x="923" y="373" as="targetPoint" />
          </mxGeometry>
        </mxCell>
        <mxCell id="Rc0qGepZVWq9vl_8Q3Fg-120" value="" style="shape=flexArrow;endArrow=classic;html=1;strokeColor=#457B9D;fillColor=#A8DADC;fontColor=#1D3557;exitX=0.15;exitY=1.042;exitDx=0;exitDy=0;exitPerimeter=0;" edge="1" parent="1" source="Rc0qGepZVWq9vl_8Q3Fg-113">
          <mxGeometry width="50" height="50" relative="1" as="geometry">
            <mxPoint x="670" y="390" as="sourcePoint" />
            <mxPoint x="715" y="430" as="targetPoint" />
          </mxGeometry>
        </mxCell>
        <mxCell id="Rc0qGepZVWq9vl_8Q3Fg-121" value="维表join" style="text;html=1;strokeColor=none;fillColor=none;align=center;verticalAlign=middle;whiteSpace=wrap;rounded=0;dashed=1;sketch=0;fontColor=#1D3557;" vertex="1" parent="1">
          <mxGeometry x="920" y="400" width="80" height="20" as="geometry" />
        </mxCell>
        <mxCell id="Rc0qGepZVWq9vl_8Q3Fg-122" style="edgeStyle=orthogonalEdgeStyle;curved=0;rounded=1;sketch=0;orthogonalLoop=1;jettySize=auto;html=1;exitX=0.5;exitY=1;exitDx=0;exitDy=0;exitPerimeter=0;startArrow=none;startFill=0;strokeColor=#457B9D;fillColor=#A8DADC;fontColor=#1D3557;entryX=1;entryY=0;entryDx=0;entryDy=22.5;entryPerimeter=0;" edge="1" parent="1" source="Rc0qGepZVWq9vl_8Q3Fg-82" target="Rc0qGepZVWq9vl_8Q3Fg-82">
          <mxGeometry relative="1" as="geometry">
            <mxPoint x="942.5" y="560" as="sourcePoint" />
            <mxPoint x="967.5" y="560" as="targetPoint" />
            <Array as="points">
              <mxPoint x="923" y="540" />
              <mxPoint x="970" y="540" />
              <mxPoint x="970" y="493" />
            </Array>
          </mxGeometry>
        </mxCell>
        <mxCell id="Rc0qGepZVWq9vl_8Q3Fg-123" value="离线ETL" style="text;html=1;strokeColor=none;fillColor=none;align=center;verticalAlign=middle;whiteSpace=wrap;rounded=0;dashed=1;sketch=0;fontColor=#1D3557;" vertex="1" parent="1">
          <mxGeometry x="970" y="500" width="53" height="20" as="geometry" />
        </mxCell>
        <mxCell id="Rc0qGepZVWq9vl_8Q3Fg-124" style="edgeStyle=orthogonalEdgeStyle;curved=0;rounded=1;sketch=0;orthogonalLoop=1;jettySize=auto;html=1;exitX=0.5;exitY=1;exitDx=0;exitDy=0;startArrow=none;startFill=0;strokeColor=#457B9D;fillColor=#A8DADC;fontColor=#1D3557;" edge="1" parent="1" source="Rc0qGepZVWq9vl_8Q3Fg-123" target="Rc0qGepZVWq9vl_8Q3Fg-123">
          <mxGeometry relative="1" as="geometry" />
        </mxCell>
        <mxCell id="Rc0qGepZVWq9vl_8Q3Fg-125" value="元数据" style="shape=cylinder3;whiteSpace=wrap;html=1;boundedLbl=1;backgroundOutline=1;size=15;rounded=0;sketch=0;strokeColor=#82b366;direction=east;fillColor=#97D077;" vertex="1" parent="1">
          <mxGeometry x="490" y="410" width="80" height="60" as="geometry" />
        </mxCell>
        <mxCell id="Rc0qGepZVWq9vl_8Q3Fg-126" value="" style="shape=flexArrow;endArrow=classic;html=1;strokeColor=#457B9D;fillColor=#A8DADC;fontColor=#1D3557;exitX=0.338;exitY=-0.083;exitDx=0;exitDy=0;exitPerimeter=0;" edge="1" parent="1" source="Rc0qGepZVWq9vl_8Q3Fg-125">
          <mxGeometry width="50" height="50" relative="1" as="geometry">
            <mxPoint x="510" y="400" as="sourcePoint" />
            <mxPoint x="460" y="350" as="targetPoint" />
          </mxGeometry>
        </mxCell>
        <mxCell id="Rc0qGepZVWq9vl_8Q3Fg-127" value="" style="shape=flexArrow;endArrow=classic;html=1;strokeColor=#457B9D;fillColor=#A8DADC;fontColor=#1D3557;" edge="1" parent="1">
          <mxGeometry width="50" height="50" relative="1" as="geometry">
            <mxPoint x="570" y="410" as="sourcePoint" />
            <mxPoint x="650" y="360" as="targetPoint" />
          </mxGeometry>
        </mxCell>
      </root>
    </mxGraphModel>
  </diagram>
</mxfile>
